<svg width="1920" height="664" viewBox="0 0 1920 664" fill="none" xmlns="http://www.w3.org/2000/svg">
<mask id="mask0_35_106" style="mask-type:luminance" maskUnits="userSpaceOnUse" x="-1" y="-31" width="1921" height="725">
<path d="M1920 694V-31H-0.00012207V694H1920Z" fill="white"/>
</mask>
<g mask="url(#mask0_35_106)">
<path d="M-80.8078 -51.8482L-79.5574 -56.0061C-60.595 -55.1986 -41.5079 -54.3513 -22.3343 -53.5012C100.411 -48.0574 227.331 -42.4287 349.131 -45.6712C417.202 -47.4846 486.507 -48.0918 553.536 -48.6809C610.265 -49.1775 668.926 -49.6932 726.475 -50.9356C821.933 -52.9973 887.487 -50.6393 980.849 -32.0258C988.032 -30.5939 995.139 -29.1566 1002.2 -27.7293C1068.82 -14.2606 1131.75 -1.53775 1211.2 -2.84819C1281.26 -4.00275 1352.47 -8.679 1421.33 -13.2012C1457.41 -15.571 1494.72 -18.0206 1531.3 -19.9237C1623.65 -24.7314 1693.57 -25.8234 1777.65 -17.1887C1795.32 -15.3735 1813.02 -13.3272 1830.14 -11.3488C1873.14 -6.37803 1917.61 -1.23869 1963.62 0.409778L1962.57 4.57581C1915.43 2.88747 1870.42 -2.31622 1826.88 -7.34772C1809.84 -9.317 1792.23 -11.3533 1774.72 -13.1513C1692.48 -21.5985 1623.75 -20.5119 1532.82 -15.7795C1496.43 -13.8863 1459.22 -11.4422 1423.24 -9.07957C1354.02 -4.53382 1282.45 0.165995 1211.68 1.33234C1129.19 2.69262 1064.95 -10.2948 996.943 -24.0427C989.899 -25.4664 982.81 -26.8992 975.65 -28.3274C884.064 -46.5874 822.533 -48.8195 727.111 -46.7587C669.37 -45.5117 610.618 -44.9961 553.795 -44.4976C486.898 -43.9104 417.723 -43.3041 349.911 -41.4979C227.069 -38.2273 99.6193 -43.8787 -23.6351 -49.3452C-42.7919 -50.1952 -61.8598 -51.0408 -80.8078 -51.8482Z" fill="black" fill-opacity="0.2"/>
<path d="M-77.1719 -39.1779L-75.4727 -43.3141C66.2569 -35.0327 216.017 -27.9812 350.993 -32.4191C411.607 -34.412 473.357 -34.3857 533.076 -34.3612C583.661 -34.3404 635.962 -34.3177 687.175 -35.5276C784.843 -37.8349 851.611 -33.416 951.761 -18.0188C963.655 -16.19 975.497 -14.3141 987.326 -12.439C1057.66 -1.29215 1130.38 10.2335 1209.54 10.0414C1281.78 9.8665 1355.74 7.3725 1427.27 4.96097C1463.71 3.73119 1501.4 2.46063 1538.3 1.51722C1619.03 -0.546309 1698.61 -1.92471 1784.69 3.80732C1801.84 4.94919 1819.16 6.22338 1835.91 7.45588C1878.74 10.606 1923.03 13.864 1967.41 15.1137L1966.58 19.2861C1921.55 18.0182 1876.93 14.7367 1833.78 11.563C1817.08 10.3341 1799.8 9.06357 1782.76 7.92804C1697.91 2.27757 1619.07 3.646 1539.06 5.69231C1502.27 6.633 1464.64 7.90175 1428.26 9.12881C1356.51 11.5476 1282.32 14.0498 1209.61 14.2265C1128.17 14.424 1054.38 2.72797 983.019 -8.58112C971.223 -10.4507 959.419 -12.3212 947.566 -14.1446C849.175 -29.2708 783.646 -33.6127 687.871 -31.3507C636.31 -30.1327 583.822 -30.1544 533.064 -30.1762C473.587 -30.2015 412.087 -30.2269 351.963 -28.2504C215.801 -23.7735 65.2441 -30.8567 -77.1719 -39.1779Z" fill="black" fill-opacity="0.2"/>
<path d="M-74.9063 -25.0704L-72.9095 -29.1875C79.2648 -18.7158 234.576 -15.0908 353.201 -19.2433C405.866 -21.0866 459.379 -20.1758 511.138 -19.294C554.993 -18.5473 600.346 -17.7751 644.724 -18.6977C742.668 -20.7349 817.046 -14.8226 920.04 -3.199C938.227 -1.14635 956.765 1.064 974.688 3.20093C1049.68 12.1429 1127.23 21.3903 1206.26 22.4723C1280.78 23.4919 1356.96 23.6133 1430.63 23.7311C1464.24 23.7846 1499 23.8399 1533.11 23.9794C1632.28 24.3872 1732.57 25.936 1829.56 27.4341C1876.1 28.1527 1924.23 28.8958 1971.69 29.5048L1971.31 33.6872C1923.82 33.0773 1875.67 32.3342 1829.1 31.6155C1732.2 30.1193 1631.99 28.5714 1532.98 28.1645C1498.92 28.024 1464.18 27.9687 1430.59 27.9162C1356.83 27.7993 1280.55 27.6778 1205.86 26.6547C1125.31 25.5509 1047.04 16.2174 971.335 7.19115C953.45 5.05875 934.958 2.85294 916.85 0.810248C815.064 -10.6765 741.65 -16.5218 645.338 -14.519C600.403 -13.5846 554.767 -14.3613 510.634 -15.1126C459.259 -15.988 406.133 -16.8915 354.228 -15.0745C234.636 -10.8894 78.2233 -14.5326 -74.9063 -25.0704Z" fill="black" fill-opacity="0.2"/>
<path d="M-75.6072 -7.90696L-73.5648 -12.0213C34.2048 -4.43602 148.399 -5.05046 258.833 -5.64315C302.988 -5.88059 348.65 -6.12618 392.546 -5.81987C425.508 -5.58877 458.887 -3.98924 491.167 -2.44227C538.061 -0.194773 586.553 2.12976 634.018 0.22754C707.258 -2.7078 782.585 3.89513 855.437 10.2815C877.572 12.2218 900.463 14.2282 922.63 15.8966C1101.19 29.3372 1290.36 39.025 1536.01 47.309C1629.04 50.4465 1722.52 48.373 1812.92 46.3684C1866.19 45.1866 1921.28 43.965 1976.05 43.8019L1976.13 47.9869C1921.65 48.1491 1866.71 49.3662 1813.57 50.5453C1722.76 52.5599 1628.86 54.6424 1535.02 51.4769C1288.96 43.1793 1099.42 33.4715 920.453 19.9992C898.111 18.3181 875.138 16.3035 852.919 14.3569C780.967 8.05029 706.567 1.52801 635.189 4.38813C586.44 6.34201 537.293 3.98666 489.763 1.70835C457.778 0.174977 424.704 -1.41005 392.338 -1.63571C348.624 -1.94021 303.055 -1.69643 258.986 -1.45899C148.013 -0.862679 33.2544 -0.246428 -75.6072 -7.90696Z" fill="black" fill-opacity="0.2"/>
<path d="M-80.8102 14.0778L-79.0965 9.94262C2.55149 14.7403 87.1394 12.6052 168.943 10.5389C242.547 8.68112 318.655 6.75987 392.722 9.86106C426.173 11.2621 458.907 14.1503 490.565 16.9443C526.109 20.0817 562.865 23.3261 600.43 24.4227C705.588 27.4949 807.029 30.8598 901.934 34.4241C1072.71 40.8385 1241.9 52.0289 1405.51 62.8504C1443.26 65.3471 1481.1 67.8493 1519.12 70.3079C1622.95 77.0214 1719.39 71.5015 1821.48 65.6562C1872.85 62.7154 1925.98 59.674 1979.93 58.3563L1980.65 62.5323C1927.17 63.8382 1874.29 66.8651 1823.15 69.7923C1724.67 75.4301 1622.84 81.26 1517.24 74.4323C1479.21 71.9727 1441.36 69.4688 1403.59 66.972C1240.17 56.1641 1071.19 44.9873 900.833 38.5892C806.006 35.0276 704.647 31.6654 599.568 28.596C561.159 27.474 523.98 24.1925 488.026 21.0197C456.687 18.2529 424.282 15.3937 391.491 14.0198C318.406 10.9585 242.801 12.868 169.685 14.714C87.2763 16.7957 2.05697 18.9471 -80.8102 14.0778Z" fill="black" fill-opacity="0.2"/>
<path d="M-92.1409 42.5024L-91.2 38.3327C-19.7376 40.6146 52.896 35.8849 123.134 31.3102C212.412 25.4966 304.728 19.4836 396.389 27.6535C427.519 30.4293 455.947 35.5904 483.439 40.582C514.486 46.2189 546.586 52.0461 582.25 54.3063C655.752 58.9617 738.072 58.0917 817.685 57.2498C843.055 56.9815 867.022 56.7278 890.7 56.6471L899.371 56.6172C1003.19 56.2574 1110.54 55.884 1214.97 62.1915C1274.11 65.7622 1331.84 72.7131 1387.68 79.4357C1425.42 83.9787 1464.45 88.6776 1503.39 92.2627C1610.84 102.154 1709.02 93.7608 1812.96 84.8741C1867.9 80.177 1924.71 75.3204 1983.12 73.3865L1984.09 77.5552C1926.43 79.4638 1869.99 84.2896 1815.42 88.9549C1710.16 97.954 1610.75 106.454 1500.75 96.3273C1461.44 92.7086 1422.22 87.9871 1384.3 83.4214C1328.85 76.7468 1271.52 69.8448 1213.21 66.3231C1109.71 60.0727 1002.83 60.4434 899.472 60.8023L890.796 60.8322C867.223 60.9119 843.307 61.1657 817.99 61.4339C737.846 62.2813 654.977 63.1576 580.404 58.4333C543.18 56.0762 510.36 50.1167 478.618 44.3529C451.658 39.4592 423.78 34.3978 393.828 31.7271C304.382 23.7539 213.202 29.6925 125.028 35.4354C54.0935 40.0537 -19.2529 44.8305 -92.1409 42.5024Z" fill="black" fill-opacity="0.2"/>
<path d="M-111.509 74.8319C-51.2878 74.1531 13.2865 66.2035 81.6505 57.7863C192.154 44.1825 306.418 30.1148 405.089 48.2797C431.998 53.2333 455.902 60.5349 479.016 67.5955C511.416 77.4927 544.915 87.7269 586.363 91.187C663.374 97.6159 754.198 91.9927 834.329 87.03C854.705 85.7676 873.953 84.5768 892.829 83.5718C907.171 82.8087 921.622 81.9931 936.159 81.172C1027.03 76.0408 1120.99 70.7347 1211.86 76.9226C1270.56 80.921 1326.77 89.2304 1381.12 97.2652C1417.66 102.667 1455.44 108.253 1493.41 112.431C1601.47 124.319 1699.8 114.168 1803.9 103.421C1862.29 97.393 1922.67 91.1589 1985.05 89.1398L1986 93.3103C1924.63 95.2959 1864.74 101.478 1806.83 107.457C1705.82 117.885 1601.37 128.669 1490.3 116.449C1451.85 112.218 1413.82 106.597 1377.06 101.162C1323.2 93.1998 1267.51 84.9674 1209.88 81.0415C1120.82 74.9769 1027.78 80.2304 937.803 85.3109C923.232 86.1338 908.751 86.9512 894.377 87.7161C875.626 88.7138 856.438 89.9019 836.124 91.1598C755.004 96.1822 663.058 101.876 583.956 95.2724C539.95 91.5993 505.414 81.0488 472.015 70.8462C449.383 63.9324 425.979 56.783 400.21 52.0388C305.587 34.6189 193.495 48.4183 85.0969 61.7638C15.9505 70.2762 -49.3607 78.3173 -111.18 79.0152L-111.509 74.8319Z" fill="black" fill-opacity="0.2"/>
<path d="M-129.471 106.292C-70.1089 104.204 -5.29929 94.048 63.3167 83.2962C179.194 65.1368 299.018 46.3584 400.987 66.5352C434.227 73.1136 462.54 82.5631 489.924 91.7017C521.129 102.117 553.397 112.886 592.51 119.108C663.154 130.344 751.164 121.941 828.821 114.525C843.094 113.161 856.579 111.874 869.693 110.732C890.525 108.918 911.338 106.901 933.37 104.767C1013.86 96.9688 1097.09 88.905 1178.19 91.4126C1246.6 93.5278 1311.94 103.56 1375.13 113.261C1400.15 117.103 1426.02 121.076 1451.28 124.409C1577.44 141.062 1687.37 130.789 1803.75 119.913C1861.95 114.474 1922.14 108.85 1986.11 106.519L1987.18 110.685C1924.02 112.986 1864.24 118.573 1806.42 123.975C1688.39 135.006 1576.9 145.425 1447.61 128.359C1422.09 124.99 1396.08 120.998 1370.93 117.137C1308.52 107.555 1243.98 97.6458 1177.28 95.5841C1098.04 93.1336 1015.73 101.109 936.134 108.82C914.033 110.961 893.158 112.984 872.191 114.809C859.195 115.941 845.765 117.224 831.547 118.581C752.201 126.158 662.266 134.746 588.192 122.963C547.394 116.474 514.433 105.473 482.556 94.8337C455.671 85.8609 427.869 76.5818 395.82 70.2408C298.469 50.9776 181.09 69.3717 67.5791 87.1596C-1.83849 98.0373 -67.3993 108.312 -128.439 110.459L-129.471 106.292Z" fill="black" fill-opacity="0.2"/>
<path d="M-128.94 128.454C-63.9309 126.301 4.08744 114.847 69.8666 103.77C177.099 85.7133 287.983 67.0418 395.885 85.6779C431.964 91.9084 464.441 100.765 495.843 109.331C531.886 119.162 569.155 129.327 611.487 135.325C686.419 145.942 773.1 137.364 849.576 129.795C859.613 128.802 869.503 127.822 879.209 126.901C897.166 125.197 915.816 123.274 933.852 121.416C1011.39 113.424 1091.57 105.16 1171.08 107.613C1239.71 109.731 1306.09 119.124 1370.28 128.208C1395.95 131.841 1422.5 135.599 1448.39 138.756C1579.74 154.775 1707.42 146.479 1842.6 137.697C1891.6 134.513 1942.27 131.221 1992.68 129.241L1993.83 133.404C1943.79 135.368 1893.3 138.648 1844.48 141.821C1713.93 150.304 1578.92 159.075 1444.97 142.739C1418.84 139.551 1392.16 135.777 1366.37 132.127C1302.89 123.144 1237.25 113.855 1170.17 111.786C1092.61 109.393 1013.39 117.558 936.782 125.454C918.694 127.318 899.99 129.246 881.921 130.962C872.256 131.879 862.402 132.855 852.401 133.845C774.319 141.573 685.819 150.331 607.575 139.245C563.849 133.049 525.965 122.716 489.331 112.724C458.362 104.278 426.339 95.5434 391.258 89.4851C287.928 71.6392 179.381 89.9173 74.405 107.594C7.78583 118.811 -61.0966 130.411 -127.968 132.625L-128.94 128.454Z" fill="black" fill-opacity="0.2"/>
<path d="M-119.861 155.122C-49.9775 152.468 15.4705 139.888 78.7585 127.723C174.509 109.319 273.519 90.288 387.175 106.459C427.234 112.159 464.88 120.249 501.286 128.072C543.322 137.105 586.788 146.446 633.672 151.99C715.843 161.707 799.567 152.644 880.534 143.882L889.212 142.943C903.454 141.405 918.084 139.74 932.237 138.13C1005.5 129.792 1081.27 121.171 1158.72 123.256C1228.19 125.123 1296.22 133.618 1362.01 141.833C1388.57 145.149 1416.03 148.578 1442.82 151.458C1593.82 167.696 1763.41 163.053 1927.41 158.561C1952.9 157.863 1979.26 157.142 2004.6 156.534L2005.31 160.711C1980.02 161.317 1954.86 162.006 1928.22 162.735C1763.25 167.253 1592.66 171.925 1439.77 155.483C1412.76 152.578 1385.18 149.135 1358.52 145.806C1293.37 137.672 1226.02 129.261 1157.93 127.431C1082.52 125.403 1007.75 133.91 935.446 142.138C921.259 143.752 906.588 145.422 892.272 146.967L883.601 147.905C801.055 156.838 715.702 166.077 630.343 155.984C582.317 150.305 538.322 140.851 495.778 131.709C459.746 123.966 422.489 115.959 383.244 110.376C274.191 94.8592 181.714 112.634 83.8058 131.453C19.601 143.794 -46.7902 156.555 -118.749 159.289L-119.861 155.122Z" fill="black" fill-opacity="0.2"/>
<path d="M-104.873 184.641C-31.3703 181.118 29.1889 167.207 87.7585 153.755C174.922 133.734 257.244 114.824 376.068 128.252C420.845 133.311 464.182 140.527 506.095 147.505C554.746 155.606 605.057 163.982 657.439 168.924C743.782 177.071 821.055 168.816 899.172 158.869C908.923 157.628 918.655 156.357 928.399 155.084C996.756 146.156 1067.44 136.925 1143.03 138.482C1213.78 139.94 1283.84 147.377 1351.6 154.57C1379.18 157.497 1407.7 160.525 1435.53 163.058C1496.61 168.619 1554.94 170.163 1616.7 171.798C1643.66 172.512 1671.54 173.25 1699.59 174.352C1734.84 175.736 1770.33 177.544 1804.65 179.295C1874.79 182.871 1947.32 186.568 2019.94 186.709L2019.88 190.894C1946.54 190.751 1873.65 187.036 1803.16 183.442C1768.92 181.697 1733.52 179.893 1698.44 178.514C1670.57 177.42 1642.79 176.684 1615.92 175.973C1553.69 174.325 1494.9 172.769 1432.92 167.126C1404.89 164.574 1376.27 161.536 1348.59 158.598C1281.41 151.466 1211.94 144.093 1142.42 142.66C1069.02 141.149 999.382 150.243 932.038 159.038C922.272 160.314 912.506 161.589 902.731 162.833C822.984 172.988 744.007 181.405 654.744 172.983C601.44 167.954 550.687 159.504 501.607 151.332C460.008 144.406 416.993 137.244 372.881 132.259C258.804 119.368 178.531 137.806 93.5449 157.327C33.9817 171.009 -27.6095 185.155 -103.466 188.792L-104.873 184.641Z" fill="black" fill-opacity="0.2"/>
<path d="M-86.4837 215.631C-12.5878 211.077 33.2833 196.656 86.4025 179.959C97.2649 176.544 108.497 173.012 120.259 169.479C195.775 146.795 261.742 141.685 363.667 150.624C412.999 154.951 460.313 160.657 506.071 166.176C638.758 182.181 764.086 197.296 908.623 174.859L922.731 172.66C988.781 162.342 1051.17 152.596 1125.71 153.592C1198.01 154.558 1270.28 160.868 1340.17 166.97C1368.83 169.472 1398.47 172.061 1427.41 174.209C1468.68 177.274 1511.12 178.849 1552.17 180.373C1601.03 182.186 1651.57 184.061 1700.63 188.463C1738.08 191.822 1775.29 195.879 1811.28 199.801C1883.85 207.712 1958.89 215.891 2036.87 218.348L2035.94 222.519C1956.86 220.027 1881.29 211.789 1808.2 203.822C1772.33 199.913 1735.25 195.871 1698.05 192.534C1649.73 188.198 1599.58 186.337 1551.07 184.538C1509.77 183.005 1467.06 181.42 1425.26 178.316C1396.14 176.153 1366.41 173.558 1337.66 171.047C1268.28 164.989 1196.54 158.726 1125.32 157.775C1053.19 156.811 991.886 166.387 926.986 176.525L912.852 178.728C764.561 201.749 637.356 186.406 502.683 170.162C457.138 164.669 410.038 158.988 361.147 154.701C263.04 146.096 199.63 150.989 127.186 172.751C115.517 176.257 104.331 179.772 93.5162 183.172C39.1514 200.262 -7.80468 215.022 -84.6911 219.761L-86.4837 215.631Z" fill="black" fill-opacity="0.2"/>
<path d="M-67.296 246.445C2.90639 241.048 40.5383 225.647 84.1127 207.815C93.7631 203.865 103.742 199.781 114.413 195.665C186.641 167.812 250.807 166.16 351.158 172.945C401.203 176.328 452.129 181.543 501.379 186.585C638.969 200.672 781.248 215.238 917.182 190.903C924.365 189.618 931.366 188.34 938.242 187.085C993.499 177.003 1041.23 168.295 1108.68 168.729C1182.56 169.204 1256.94 174.412 1328.88 179.448C1358.63 181.531 1389.4 183.685 1419.46 185.451C1450.38 187.268 1481.66 188.417 1511.91 189.528C1574.42 191.825 1639.07 194.2 1701.52 202.615C1741.01 207.935 1779.77 214.19 1817.26 220.239C1892.18 232.33 1969.66 244.833 2053.51 249.759L2051.8 253.893C1966.57 248.886 1888.44 236.279 1812.88 224.085C1775.55 218.061 1736.95 211.832 1697.78 206.555C1636.62 198.316 1575.52 196.07 1510.83 193.693C1480.42 192.576 1448.99 191.42 1417.74 189.585C1387.53 187.81 1356.68 185.651 1326.85 183.562C1255.36 178.558 1181.44 173.382 1108.49 172.914C1043.68 172.496 997.063 181.003 943.082 190.851C936.185 192.111 929.153 193.392 921.946 194.683C782.299 219.682 638.004 204.911 498.461 190.623C449.443 185.605 398.758 180.415 349.198 177.065C252.686 170.54 191.107 172.077 122.362 198.589C111.802 202.66 101.88 206.722 92.2848 210.649C47.4048 229.016 8.64476 244.878 -65.076 250.545L-67.296 246.445Z" fill="black" fill-opacity="0.2"/>
<path d="M-49.8934 275.51C17.5322 269.423 47.8514 253.203 82.9538 234.422C91.2986 229.958 99.924 225.343 109.387 220.676C174.622 188.49 239.897 189.368 339.646 194.639C387.941 197.19 439.186 201.86 493.431 206.804C644.405 220.562 800.518 234.789 924.084 207.12C928.428 206.148 932.654 205.193 936.792 204.259C988.846 192.508 1026.46 184.016 1093.76 184.094C1169.04 184.18 1245.21 188.397 1318.88 192.473C1349.66 194.176 1381.48 195.938 1412.59 197.357C1437.48 198.492 1462.04 199.272 1485.81 200.026C1559.95 202.378 1629.97 204.599 1702.06 216.933C1743.26 223.983 1783.3 232.2 1822.02 240.148C1898.99 255.946 1978.57 272.281 2067.97 279.322L2065.7 283.418C1974.7 276.252 1894.38 259.766 1816.7 243.823C1778.16 235.912 1738.3 227.731 1697.46 220.744C1627.13 208.709 1558.03 206.516 1484.87 204.196C1461.01 203.44 1436.34 202.657 1411.26 201.513C1380 200.087 1348.11 198.321 1317.26 196.615C1243.98 192.559 1168.21 188.365 1093.72 188.279C1029.51 188.205 993.01 196.444 942.494 207.849C938.345 208.786 934.104 209.743 929.753 210.717C802.301 239.256 636.814 224.176 490.812 210.871C436.836 205.953 385.85 201.306 338.098 198.782C242.345 193.723 179.763 192.843 118.207 223.214C108.879 227.818 100.31 232.4 92.028 236.831C55.6248 256.305 24.1849 273.123 -47.3159 279.578L-49.8934 275.51Z" fill="black" fill-opacity="0.2"/>
<path d="M-35.7696 301.198C26.6376 299.813 55.5791 278.815 83.5655 258.508C90.9863 253.123 97.9967 248.036 105.526 243.427C163.567 207.897 233.496 210.933 330.286 215.135C392.957 217.856 456.192 221.819 517.337 225.653C589.409 230.17 663.934 234.841 737.813 237.491C813.017 240.187 866.957 240.674 929.045 223.553L936.118 221.598C984.862 208.116 1014.28 199.977 1082.8 199.885C1159.05 199.784 1236.44 203.204 1311.29 206.511C1342.96 207.911 1375.71 209.358 1407.76 210.508C1429.27 211.28 1450.28 211.818 1470.61 212.339C1549.7 214.366 1624.41 216.281 1702.08 231.553C1744.5 239.894 1785.4 249.667 1824.95 259.119C1903.34 277.85 1984.39 297.219 2078.44 305.421L2075.94 309.498C1980.04 301.135 1898.17 281.571 1819 262.652C1779.65 253.247 1738.95 243.523 1696.94 235.263C1621.34 220.396 1547.76 218.511 1469.86 216.514C1449.46 215.991 1428.37 215.451 1406.71 214.673C1374.54 213.52 1341.73 212.069 1310 210.667C1235.48 207.375 1158.42 203.969 1082.84 204.07C1017.95 204.156 991.222 211.55 942.701 224.971L935.611 226.931C870.353 244.927 814.51 244.446 736.764 241.658C662.503 238.995 587.784 234.312 515.522 229.782C454.507 225.958 391.416 222.004 329.018 219.294C232.855 215.12 169.327 212.362 114.989 245.623C107.674 250.102 100.752 255.123 93.4271 260.439C65.3831 280.789 33.5952 303.854 -35.1144 305.379L-35.7696 301.198Z" fill="black" fill-opacity="0.2"/>
<path d="M-30.6839 322.129C36.5161 315.749 57.696 298.609 82.2216 278.763C89.4144 272.944 96.8497 266.925 105.811 260.825C156.653 226.216 232.126 229.647 319.517 233.617C327.444 233.977 335.508 234.344 343.697 234.69C400.654 237.095 458.388 240.256 514.219 243.314C598.55 247.931 685.757 252.706 771.991 254.966C848.909 256.984 885.958 254.515 940.671 236.627C996.54 218.361 1034.18 215.534 1112.19 216.723C1181 217.773 1250.67 220.196 1318.04 222.54C1363.14 224.108 1409.79 225.731 1455.68 226.922C1571.34 229.928 1649.53 233.664 1759.79 260.159C1783.91 265.955 1807.8 272.14 1830.92 278.121C1911.55 298.989 1987.72 318.7 2083.08 326.436L2080.74 330.527C1983.24 322.618 1902.6 301.751 1824.63 281.571C1801.59 275.609 1777.77 269.445 1753.81 263.687C1645.78 237.726 1568.82 234.056 1454.92 231.097C1408.89 229.901 1362.18 228.277 1317.02 226.706C1249.78 224.368 1180.26 221.95 1111.74 220.905C1035.73 219.744 1001.4 222.31 947.952 239.787C890.292 258.638 851.515 261.247 771.214 259.141C684.564 256.869 597.154 252.083 512.616 247.454C456.871 244.402 399.233 241.246 342.458 238.848C334.234 238.501 326.141 238.133 318.182 237.77C231.338 233.824 162.744 230.708 115.529 262.849C106.757 268.822 99.4008 274.772 92.2896 280.526C66.5664 301.342 44.352 319.318 -27.9744 326.186L-30.6839 322.129Z" fill="black" fill-opacity="0.2"/>
<path d="M-32.052 337.307C32.568 330.111 56.7456 313.877 84.744 295.081C92.568 289.826 100.663 284.393 110.038 278.846C165.458 246.059 234.055 248.941 320.897 252.587C330.072 252.973 339.478 253.368 349.123 253.732C405.098 255.844 461.909 258.344 516.852 260.761C599.52 264.398 685.001 268.159 769.306 270.675C847.603 273.012 884.866 269.427 942.653 253.998C1000.4 238.577 1039.84 234.539 1118.46 236.002C1184.99 237.238 1252.59 238.684 1317.96 240.081C1362.75 241.039 1407.53 241.996 1452.32 242.897C1574.57 245.355 1651.33 250.964 1756.87 276.185C1780.9 281.927 1804.71 288.051 1827.73 293.973C1908.24 314.68 1984.28 334.24 2079.42 341.914L2077.09 346.006C1979.82 338.16 1899.32 317.453 1821.47 297.429C1798.52 291.526 1774.79 285.424 1750.92 279.719C1647.46 254.996 1572.01 249.494 1451.72 247.076C1406.92 246.174 1362.13 245.216 1317.33 244.258C1251.98 242.861 1184.4 241.415 1117.92 240.18C1041.36 238.757 1005.06 242.461 949.073 257.411C889.426 273.338 848.906 277.248 768.425 274.846C683.909 272.324 598.325 268.557 515.561 264.916C460.663 262.502 403.898 260.004 348.014 257.895C338.326 257.529 328.879 257.132 319.666 256.745C233.419 253.123 171.106 250.506 119.41 281.093C110.194 286.542 102.18 291.924 94.4279 297.128C65.2463 316.721 40.044 333.641 -28.908 341.32L-32.052 337.307Z" fill="black" fill-opacity="0.2"/>
<path d="M-36.5063 348.075C26.4769 341.491 57.7081 327.267 93.8713 310.798C102.828 306.719 112.092 302.5 122.268 298.184C186.37 270.994 251.659 272.845 334.323 275.189C344.007 275.464 353.971 275.747 364.248 275.992C409.174 277.069 455.172 279.046 503.875 281.141C657.175 287.733 815.693 294.549 948.953 273.051C1066.89 254.027 1204.6 256.059 1337.77 258.026C1375.52 258.583 1411.17 259.11 1446.41 259.172C1571.53 259.395 1647.26 267.265 1746.54 290.361C1770.21 295.868 1793.66 301.723 1816.34 307.386C1896.49 327.394 1972.2 346.293 2066.31 353.791L2064.01 357.886C1967.82 350.222 1887.7 330.219 1810.21 310.874C1787.6 305.23 1764.23 299.393 1740.71 293.921C1643.42 271.288 1569.15 263.576 1446.36 263.356C1410.93 263.293 1375.18 262.765 1337.34 262.206C1205.4 260.259 1068.96 258.244 953.33 276.898C817.358 298.831 657.355 291.952 502.615 285.298C454.056 283.21 408.19 281.238 363.55 280.168C353.225 279.921 343.217 279.637 333.494 279.361C250.783 277.015 191.026 275.322 130.572 300.961C120.528 305.221 111.329 309.412 102.435 313.464C65.0762 330.477 32.8082 345.169 -33.5326 352.106L-36.5063 348.075Z" fill="black" fill-opacity="0.2"/>
<path d="M-43.0149 355.75C20.3979 350.957 62.2683 339.584 110.755 326.415C120.207 323.848 129.979 321.194 140.17 318.52C211.263 299.859 274.275 300.168 354.055 300.561C364.318 300.611 374.839 300.662 385.663 300.673C426.274 300.712 467.835 300.964 508.027 301.209C656.952 302.113 810.948 303.048 958.255 293.57C1082.02 285.606 1211.35 282.093 1336.43 278.696C1370.16 277.779 1405.04 276.831 1439.06 275.815C1549.53 272.514 1625.83 279.663 1730.65 303.13C1753.86 308.325 1776.85 313.84 1799.09 319.171C1878.56 338.23 1953.63 356.233 2046.29 363.182L2044.12 367.285C1949.42 360.183 1869.96 341.129 1793.12 322.701C1770.96 317.386 1748.04 311.889 1724.98 306.727C1622.4 283.76 1547.81 276.763 1439.94 279.986C1405.88 281.004 1370.98 281.952 1337.23 282.869C1212.42 286.26 1083.36 289.765 960.13 297.694C811.805 307.238 657.286 306.3 507.855 305.393C467.698 305.149 426.171 304.897 385.635 304.857C374.772 304.847 364.212 304.795 353.914 304.744C276.127 304.361 214.683 304.06 146.52 321.952C136.402 324.609 126.667 327.252 117.255 329.809C67.7187 343.263 24.941 354.881 -40.8286 359.854L-43.0149 355.75Z" fill="black" fill-opacity="0.2"/>
<path d="M-50.7984 361.57C15.3216 359.09 72.6745 351.405 133.394 343.269C142.678 342.027 152.045 340.773 161.542 339.521C225.828 331.061 287.491 329.69 352.776 328.239C371.638 327.821 391.14 327.387 410.748 326.769C444.353 325.712 478.26 324.574 511.051 323.472C666.787 318.243 813.881 313.303 969.06 314.99C983.899 315.151 998.825 315.368 1013.8 315.584C1071.45 316.416 1131.07 317.279 1188.46 314.952C1237.4 312.967 1285.42 307.646 1331.86 302.499C1364.02 298.935 1397.28 295.25 1430.75 292.673C1568.31 282.08 1678.63 307.019 1785.32 331.135C1859.38 347.876 1935.95 365.185 2022.14 371.056L2020.17 375.174C1931.98 369.167 1854.52 351.658 1779.61 334.724C1669.92 309.928 1566.31 286.507 1432.97 296.773C1399.96 299.315 1366.93 302.974 1334.99 306.515C1288.08 311.713 1239.58 317.089 1189.65 319.112C1131.45 321.473 1071.42 320.605 1013.37 319.766C998.436 319.55 983.546 319.334 968.741 319.174C814.217 317.495 667.438 322.423 512.04 327.641C479.234 328.742 445.31 329.881 411.677 330.939C391.934 331.56 372.36 331.996 353.434 332.415C288.946 333.849 228.031 335.203 165.211 343.472C155.734 344.719 146.386 345.971 137.124 347.213C75.7465 355.435 17.7745 363.203 -49.6943 365.733L-50.7984 361.57Z" fill="black" fill-opacity="0.2"/>
<path d="M-59.0544 366.792C114.35 366.653 266.755 363.105 393.931 356.25C449.146 353.274 504.182 347.982 557.405 342.864C603.017 338.477 650.182 333.942 697.452 330.857C790.834 324.764 879.634 329.802 955.538 335.003C971.227 336.077 986.851 337.274 1003.39 338.539C1069.28 343.581 1137.4 348.794 1201.6 345.399C1251.13 342.779 1295.31 333.75 1338.05 325.018C1361.63 320.197 1386.02 315.212 1411.22 311.305C1541.4 291.12 1660.57 317.047 1775.82 342.12C1847.37 357.686 1921.35 373.781 1996.64 378.422L1994.85 382.553C1917.55 377.789 1842.67 361.499 1770.26 345.746C1652.14 320.048 1540.57 295.774 1415.45 315.177C1390.8 318.998 1366.67 323.929 1343.34 328.697C1299.74 337.606 1254.66 346.82 1203.15 349.544C1137.06 353.04 1067.98 347.753 1001.18 342.642C984.698 341.379 969.127 340.188 953.551 339.12C878.587 333.984 790.939 329.006 699.346 334.982C652.507 338.039 605.558 342.554 560.153 346.92C506.642 352.067 451.31 357.387 395.508 360.396C267.818 367.279 114.891 370.838 -59.0327 370.978L-59.0544 366.792Z" fill="black" fill-opacity="0.2"/>
<path d="M-67.8072 376.819L-66.9456 372.647C9.70799 374.881 85.1831 377.632 155.326 380.273C174.648 381.001 194.844 381.986 214.37 382.938C284.568 386.363 357.151 389.906 423.391 383.851C472.994 379.319 520.757 371.579 566.947 364.092C606.746 357.642 647.904 350.972 690.36 346.314C784.613 335.976 870.31 345.213 961.042 354.996L961.848 355.082C979.15 356.948 997.315 359.195 1016.55 361.576C1086.36 370.21 1165.49 380.001 1231.88 374.548C1277.75 370.781 1312.32 358.79 1345.75 347.193C1364.26 340.769 1383.41 334.128 1404.38 328.885C1490.15 307.443 1572.54 319.84 1663.66 336.924C1687.94 341.476 1711.89 346.348 1735.05 351.061C1812.06 366.729 1884.8 381.529 1972.48 386.295L1970.89 390.436C1881.26 385.565 1807.67 370.594 1729.77 354.743C1706.69 350.046 1682.82 345.192 1658.71 340.67C1570.74 324.175 1491.35 312.166 1410.52 332.372C1390.28 337.431 1371.47 343.959 1353.27 350.271C1318.76 362.245 1283.06 374.628 1234.25 378.637C1164.9 384.33 1084.25 374.353 1013.09 365.55C993.958 363.183 975.89 360.95 958.793 359.106L957.989 359.019C868.841 349.408 784.642 340.331 693.463 350.333C651.667 354.918 610.831 361.536 571.339 367.937C524.726 375.491 476.525 383.302 426.01 387.92C357.768 394.155 284.148 390.562 212.947 387.088C192.602 386.095 173.383 385.158 154.219 384.436C84.1415 381.8 8.74317 379.05 -67.8072 376.819Z" fill="black" fill-opacity="0.2"/>
<path d="M-74.9737 384.523L-73.5768 380.37C10.2624 384.377 91.4519 391.264 167.424 397.976C183.665 399.41 200.268 401.072 217.843 402.832C292.572 410.316 377.278 418.798 448.313 409.797C493.776 404.037 535.006 394.175 574.872 384.639C609.43 376.373 645.17 367.823 683.892 361.848C773.047 348.084 860.537 360.038 945.142 371.595C952.385 372.586 959.611 373.573 966.821 374.541C984.458 376.911 1003.98 379.952 1024.64 383.172C1097.83 394.576 1188.92 408.77 1257.42 401.706C1301.39 397.175 1327.13 382.662 1352.02 368.628C1366.07 360.708 1380.6 352.518 1398.24 346.225C1474.52 319.03 1566.62 335.374 1647.88 349.796C1671.66 354.018 1695.12 358.529 1717.82 362.891C1794.18 377.567 1866.3 391.432 1952.46 395.687L1951.02 399.837C1862.95 395.488 1790 381.465 1712.77 366.618C1690.15 362.271 1666.77 357.775 1643.15 353.584C1565.1 339.732 1476.65 324.033 1405.88 349.264C1389.14 355.233 1375.6 362.869 1361.26 370.953C1335.24 385.626 1308.32 400.799 1260.36 405.744C1188.19 413.183 1095.15 398.688 1020.4 387.039C999.864 383.84 980.47 380.816 963.091 378.483C955.865 377.511 948.622 376.523 941.359 375.529C858.734 364.241 773.299 352.569 688.106 365.719C650.294 371.555 614.983 380.003 580.831 388.171C540.406 397.842 498.6 407.842 451.862 413.763C377.652 423.165 291.24 414.51 214.994 406.875C197.501 405.123 180.977 403.468 164.892 402.047C89.2008 395.364 8.33509 388.503 -74.9737 384.523Z" fill="black" fill-opacity="0.2"/>
<path d="M-79.5794 395.334L-78.0602 391.187C7.14219 395.62 83.9063 404.395 175.404 415.409C190.27 417.198 205.778 419.257 222.192 421.438C301.771 432.01 391.963 443.993 465.768 432.954C508.917 426.5 545.045 415.048 579.986 403.973C610.483 394.306 642.022 384.308 678.523 377.45C765.283 361.145 858.866 375.729 941.431 388.596C950.993 390.086 960.43 391.556 969.713 392.957C987.158 395.589 1007.27 399.123 1028.57 402.865C1107.16 416.671 1204.97 433.852 1274.91 425.546C1318.99 420.313 1338.1 404.022 1356.58 388.269C1367.06 379.34 1377.89 370.11 1393.16 363.087C1457.63 333.438 1557.86 350.516 1631.05 362.984L1637.6 364.099C1660.94 368.065 1683.99 372.292 1706.29 376.38C1782.37 390.331 1854.24 403.507 1939.32 407.609L1937.91 411.761C1851.02 407.571 1778.36 394.249 1701.43 380.143C1679.2 376.068 1656.22 371.854 1633.03 367.913L1626.47 366.797C1552.67 354.224 1460.82 338.575 1401.76 365.738C1387.44 372.323 1377.39 380.89 1366.75 389.961C1347.26 406.565 1327.12 423.735 1278.25 429.537C1204.19 438.332 1104.22 420.769 1023.88 406.658C1002.73 402.941 982.745 399.431 965.585 396.842C956.263 395.435 946.788 393.96 937.188 392.463C856.814 379.939 765.718 365.743 683.486 381.194C648.163 387.83 617.143 397.665 587.141 407.176C551.522 418.465 514.694 430.138 469.872 436.843C392.201 448.46 299.918 436.2 218.505 425.384C202.166 423.213 186.739 421.164 172.032 419.395C81.043 408.443 4.7446 399.719 -79.5794 395.334Z" fill="black" fill-opacity="0.2"/>
<path d="M-80.7722 410.357L-79.5794 406.197C11.011 409.889 91.4902 420.755 176.695 432.258L177.641 432.387C191.014 434.192 204.893 436.209 219.586 438.345C297.401 449.658 394.246 463.736 471.835 451.991C514.62 445.515 548.409 433.312 581.09 421.51C609.775 411.152 639.432 400.44 675.504 393.34C762.451 376.22 858.163 391.816 942.607 405.576C951.905 407.09 961.032 408.578 969.957 409.989C987.338 412.734 1007.44 416.417 1028.72 420.313C1108.87 434.996 1208.62 453.268 1280.46 444.631C1325.71 439.19 1341.92 422.28 1357.59 405.928C1366.61 396.516 1375.93 386.784 1390.73 379.369C1450.39 349.476 1550.99 366.29 1624.44 378.567L1634.99 380.324C1657.98 384.138 1680.75 388.185 1702.76 392.1C1779.14 405.68 1851.28 418.509 1935.85 422.932L1934.32 427.076C1848.07 422.565 1775.19 409.606 1698.02 395.885C1676.07 391.981 1653.37 387.945 1630.51 384.156L1619.94 382.393C1549.89 370.685 1453.96 354.651 1399.62 381.883C1385.82 388.796 1377.18 397.807 1368.04 407.349C1351.45 424.654 1334.3 442.547 1283.84 448.616C1207.76 457.763 1105.79 439.085 1023.86 424.076C1002.72 420.205 982.754 416.546 965.659 413.846C956.693 412.429 947.532 410.936 938.196 409.415C856.03 396.026 762.9 380.852 680.645 397.046C645.981 403.873 616.896 414.374 588.78 424.529C555.334 436.606 520.757 449.095 475.98 455.873C394.327 468.231 295.224 453.825 215.589 442.248C200.961 440.121 187.145 438.113 173.897 436.325L172.949 436.196C88.3823 424.78 8.503 413.994 -80.7722 410.357Z" fill="black" fill-opacity="0.2"/>
<path d="M-83.2055 426.992L-82.0344 422.832C9.75604 426.498 91.2793 438.035 170.114 449.193C182.17 450.898 194.487 452.745 207.531 454.697C288.341 466.802 379.932 480.521 459.132 468.853C502.951 462.396 538.901 450.489 573.674 438.973C604.049 428.912 635.465 418.51 672.439 411.526C760.726 394.85 855.586 410.22 939.276 423.779C947.808 425.161 956.227 426.525 964.512 427.836C981.816 430.57 1001.55 434.166 1022.43 437.974C1100.83 452.265 1198.4 470.051 1270.29 461.821C1315.76 456.615 1336.94 439.669 1357.42 423.282C1369.01 414.014 1380.99 404.431 1397.22 397.28C1461.34 369.02 1554.72 383.95 1629.75 395.946C1634.12 396.644 1638.43 397.335 1642.69 398.007C1665.63 401.635 1688.41 405.482 1710.45 409.203C1787.67 422.239 1860.6 434.551 1944.78 439.162L1943.18 443.303C1857.47 438.608 1783.85 426.18 1705.91 413.023C1683.93 409.312 1661.2 405.474 1638.39 401.866C1634.12 401.192 1629.79 400.499 1625.41 399.8C1549.99 387.739 1464.5 374.071 1405.66 400C1390.41 406.724 1379.27 415.634 1367.48 425.067C1345.96 442.281 1323.71 460.081 1273.52 465.827C1197.47 474.532 1097.74 456.352 1017.6 441.744C996.847 437.96 977.246 434.388 960.218 431.696C951.905 430.383 943.452 429.013 934.889 427.626C853.426 414.426 761.088 399.465 677.419 415.269C641.729 422.011 610.865 432.234 581.011 442.121C545.52 453.875 508.819 466.028 463.179 472.753C379.901 485.022 286.147 470.98 203.429 458.59C190.435 456.643 178.167 454.805 166.21 453.113C88.0226 442.044 7.1761 430.602 -83.2055 426.992Z" fill="black" fill-opacity="0.2"/>
<path d="M-88.5816 443.472L-87.3793 439.31C-3.55929 442.75 68.3928 453 153.749 466.042C163.562 467.54 173.592 469.126 183.794 470.74C262.464 483.176 351.634 497.273 433.594 486.144C479.556 479.904 518.945 468.451 557.035 457.374C590.177 447.737 624.442 437.773 663.331 431.072C754.879 415.299 849.233 430.414 932.482 443.75C939.048 444.801 945.578 445.847 952.066 446.873C969.07 449.56 988.082 452.996 1008.21 456.634C1084.19 470.37 1178.76 487.466 1250.72 479.665C1299.36 474.392 1328.76 457.568 1357.19 441.296C1372.58 432.492 1388.49 423.387 1407.12 416.444C1478.51 389.834 1568.76 403.077 1648.38 414.763L1659.86 416.443C1682.82 419.79 1705.71 423.338 1727.85 426.77C1806.19 438.918 1880.19 450.392 1964.21 454.735L1962.7 458.882C1877.28 454.465 1802.64 442.892 1723.62 430.641C1701.54 427.217 1678.71 423.677 1655.85 420.348L1644.35 418.663C1564.14 406.893 1481.2 394.722 1414.93 419.42C1397.13 426.055 1382.24 434.578 1366.47 443.6C1336.93 460.507 1306.38 477.987 1253.79 483.688C1177.76 491.928 1081.09 474.453 1003.41 460.409C983.407 456.794 964.519 453.379 947.772 450.733C941.266 449.705 934.721 448.656 928.135 447.602C843.034 433.971 755.04 419.875 667.954 434.88C630.221 441.38 596.467 451.196 563.822 460.689C525.055 471.962 484.963 483.62 437.364 490.084C351.324 501.765 260.038 487.333 179.501 474.601C169.337 472.995 159.346 471.416 149.575 469.922C65.0304 457.001 -6.18723 446.852 -88.5816 443.472Z" fill="black" fill-opacity="0.2"/>
<path d="M-95.9615 459.838L-94.7183 455.68C-27.0143 458.562 40.7376 469.882 106.265 480.832C218.822 499.64 325.142 517.405 436.013 497.94C469.442 492.071 501.458 484.084 532.418 476.36C578.82 464.784 626.803 452.815 681.78 447.256C767.186 438.624 855.228 453.341 932.899 466.324C944.719 468.299 955.882 470.164 966.998 471.948C979.051 473.882 991.735 476.061 1005.16 478.369C1077.7 490.836 1167.97 506.351 1240.68 495.94C1287.34 489.26 1321.81 474.711 1355.15 460.642C1378.14 450.939 1401.9 440.906 1429.61 433.446C1508.79 412.125 1595.13 423.628 1678.64 434.756L1691.62 436.48C1711.81 439.149 1732.05 441.953 1751.62 444.665C1831.38 455.715 1906.71 466.154 1990.81 469.865L1989.52 474.023C1904.11 470.254 1828.17 459.733 1747.78 448.593C1728.25 445.887 1708.05 443.088 1687.93 440.429L1674.93 438.701C1594.11 427.932 1510.54 416.795 1436.06 436.852C1409.37 444.039 1386.02 453.897 1363.43 463.429C1329.21 477.873 1293.82 492.81 1244.63 499.852C1167.58 510.885 1074.96 494.966 1000.55 482.177C987.187 479.879 974.568 477.711 962.647 475.799C951.451 474.004 940.248 472.131 928.392 470.149C852.401 457.446 766.267 443.05 684.655 451.3C631.423 456.679 584.21 468.459 538.548 479.85C507.25 487.657 474.881 495.732 440.705 501.734C325.255 522.003 211.639 503.018 101.76 484.658C37.0033 473.837 -29.9567 462.647 -95.9615 459.838Z" fill="black" fill-opacity="0.2"/>
<path d="M-104.412 476.148L-103.094 471.992C-34.9032 475.062 28.812 486.754 90.4296 498.063C187.922 515.955 280.008 532.857 387.216 517.977C428.748 512.213 468.259 503.886 506.467 495.832C551.633 486.312 598.337 476.47 649.176 470.643C743.532 459.828 830.45 473.605 914.508 486.931L916.567 487.258C932.266 489.747 948.386 492.541 965.453 495.5C1034.48 507.465 1112.71 521.027 1185.14 517.182C1248.38 513.823 1300.51 497.085 1350.93 480.898C1371.37 474.336 1390.68 468.135 1410.64 462.802C1535.52 429.439 1679.05 447.555 1817.86 465.073C1885.68 473.634 1955.81 482.485 2021.25 484.761L2020.23 488.927C1953.5 486.607 1882.75 477.678 1814.33 469.043C1678.15 451.855 1537.34 434.085 1417.07 466.217C1397.51 471.443 1378.38 477.583 1358.14 484.084C1306.51 500.659 1253.13 517.799 1186.7 521.327C1111.04 525.343 1031.23 511.509 960.814 499.302C943.831 496.36 927.792 493.58 912.262 491.118L910.2 490.792C827.964 477.753 742.93 464.274 652.414 474.649C602.719 480.344 556.55 490.077 511.896 499.487C473.311 507.621 433.414 516.029 391.058 521.907C279.403 537.403 180.864 519.319 85.5696 501.829C24.7752 490.67 -38.0832 479.134 -104.412 476.148Z" fill="black" fill-opacity="0.2"/>
<path d="M-113.018 492.451L-111.593 488.301C-42.2686 491.683 17.0018 503.632 74.3186 515.188C160.351 532.532 241.61 548.912 349.526 535.99C394.274 530.632 437.575 522.844 479.453 515.312C528.91 506.418 580.056 497.219 634.373 491.844C726.984 482.682 807.828 493.557 896.393 507.595C910.646 509.855 924.931 512.282 940.056 514.853C1009.64 526.673 1081.59 538.895 1154.42 535.693C1224.57 532.609 1287.2 516.469 1347.77 500.862C1372.66 494.446 1396.18 488.386 1420.2 483.181C1557.56 453.409 1700.45 468.382 1838.64 482.862C1908.54 490.186 1980.82 497.76 2052.2 499.626L2051.43 503.799C1978.93 501.906 1906.1 494.273 1835.66 486.895C1693.42 471.99 1559.07 457.912 1425.74 486.807C1402.09 491.932 1378.75 497.948 1354.04 504.316C1292.36 520.209 1228.59 536.644 1155.71 539.85C1079.82 543.186 1003.14 530.16 935.491 518.666C920.434 516.108 906.211 513.693 892.08 511.452C802.337 497.226 726.583 487.046 637.193 495.892C583.894 501.165 533.234 510.277 484.238 519.088C442.022 526.682 398.369 534.533 352.891 539.979C240.507 553.437 157.236 536.65 69.0768 518.877C12.6432 507.499 -45.715 495.735 -113.018 492.451Z" fill="black" fill-opacity="0.2"/>
<path d="M-120.818 508.798L-119.321 504.652C-51.271 508.133 3.12247 520.43 55.7209 532.322C129.811 549.074 199.788 564.897 301.375 555.306C354.607 550.281 406.272 542.263 456.24 534.512C502.69 527.304 550.726 519.851 600.214 514.751C711.871 503.247 800.098 515.11 903.838 531.816C909.288 532.693 914.75 533.581 920.237 534.472C992.474 546.212 1067.17 558.35 1146.67 552.801C1217.79 547.838 1283.82 533.658 1347.68 519.945C1379.59 513.093 1412.58 506.007 1445.4 500.282C1583.95 476.107 1725.28 488.536 1861.95 500.555C1933.32 506.83 2007.11 513.319 2080.3 514.665L2079.76 518.844C2005.57 517.481 1931.27 510.947 1859.43 504.629C1718.38 492.226 1585.15 480.51 1450.08 504.079C1417.68 509.73 1384.9 516.772 1353.19 523.581C1288.53 537.464 1221.66 551.824 1148.7 556.914C1065.87 562.695 989.602 550.301 915.838 538.315C910.368 537.426 904.91 536.539 899.472 535.663C794.354 518.736 711.569 507.617 603.146 518.789C554.321 523.821 506.611 531.222 460.471 538.381C410.138 546.191 358.092 554.264 304.075 559.365C198.022 569.378 126.125 553.122 50.0065 535.91C-1.63428 524.236 -55.0271 512.164 -120.818 508.798Z" fill="black" fill-opacity="0.2"/>
<path d="M-126.218 525.205L-125.993 521.02C-63.0478 521.495 -15.9743 535.089 29.5513 548.234C38.7025 550.877 48.1682 553.611 57.5618 556.175C126.576 575.015 181.469 579.815 260.112 573.889C321.115 569.292 380.722 561.077 438.367 553.133C480.555 547.319 524.179 541.307 568.174 536.729C684.595 524.62 771.07 532.099 865.092 547.054C876.247 548.829 887.688 550.725 898.745 552.557C960.828 562.847 1025.03 573.49 1093.02 572.29C1182.03 570.719 1267.92 554.283 1350.98 538.387C1392.53 530.437 1431.77 522.926 1471.58 517.1C1607.97 497.138 1747.9 507.728 1883.22 517.968C1954.98 523.398 2029.19 529.014 2102.18 530.042L2101.77 534.224C2027.88 533.183 1953.23 527.534 1881.03 522.071C1747.28 511.949 1608.97 501.482 1475.6 521.001C1436.31 526.752 1397.3 534.215 1356.01 542.119C1271.91 558.215 1184.94 574.857 1093.55 576.469C1022.94 577.714 957.53 566.872 894.276 556.387C883.253 554.56 871.855 552.67 860.779 550.909C766.265 535.876 684.845 528.936 571.135 540.765C527.578 545.295 484.169 551.277 442.186 557.063C384.149 565.061 324.135 573.333 262.291 577.992C181.234 584.101 122.004 578.935 51.0482 559.564C41.5298 556.967 32.0041 554.216 22.7953 551.555C-21.3143 538.821 -66.9142 525.652 -126.218 525.205Z" fill="black" fill-opacity="0.2"/>
<path d="M-129.59 541.791L-129.48 537.606C-69.1008 537.828 -29.8128 550.048 11.7792 562.984C22.6033 566.349 33.7967 569.83 45.3215 573.054C113.494 592.125 163.418 596.632 243.154 590.911C306.115 586.394 368.095 578.547 428.033 570.959C471.761 565.424 516.977 559.7 562.363 555.289C666.01 545.216 748.68 548.018 857.215 565.28C867.602 566.931 878.04 568.653 888.538 570.386C949.591 580.458 1012.72 590.872 1079.89 589.72C1172.24 588.136 1263.44 571.994 1351.63 556.386C1395.69 548.589 1437.31 541.223 1479.17 535.526C1618.46 516.574 1761.33 526.137 1899.49 535.383C1969.98 540.102 2042.88 544.981 2114.63 546.047L2114.19 550.23C2041.68 549.15 1968.41 544.245 1897.55 539.503C1760.82 530.352 1619.44 520.89 1482.94 539.463C1441.57 545.091 1400.18 552.417 1356.36 560.172C1267.17 575.956 1174.95 592.278 1080.4 593.899C1010.63 595.096 946.298 584.482 884.081 574.217C873.624 572.495 863.234 570.779 852.898 569.135C745.469 552.049 667.478 549.394 565.14 559.34C520.135 563.714 475.114 569.412 431.575 574.926C371.28 582.558 308.94 590.451 245.23 595.022C162.958 600.924 108.912 596.054 38.6977 576.412C26.9473 573.125 15.6432 569.609 4.71358 566.21C-35.3232 553.76 -73.1375 541.998 -129.59 541.791Z" fill="black" fill-opacity="0.2"/>
<path d="M-128.705 558.551L-128.429 554.366C-68.2705 554.921 -29.0112 566.909 12.5496 579.601C23.2128 582.857 34.236 586.224 45.612 589.372C113.417 608.132 163.318 612.496 243.37 606.662C305.952 602.102 367.982 594.83 427.968 587.798C471.749 582.665 517.025 577.357 562.284 573.128C666.173 563.418 746.021 565.939 856.889 582.425C868.505 584.152 880.498 586.028 892.099 587.84C952.519 597.275 1015 607.032 1079.23 605.904C1170.69 604.298 1263.13 588.649 1352.54 573.517C1396.88 566.011 1438.76 558.922 1480.39 553.47C1623.41 534.74 1772.2 543.995 1916.1 552.944C1981.84 557.033 2049.82 561.261 2116.22 562.743L2115.56 566.92C2048.58 565.425 1980.31 561.178 1914.29 557.072C1771.77 548.208 1624.38 539.041 1484.04 557.423C1442.87 562.814 1401.2 569.867 1357.09 577.334C1266.74 592.628 1173.32 608.441 1079.75 610.085C1013.04 611.258 949.394 601.318 887.851 591.706C875.758 589.817 864.336 588.034 852.811 586.321C744.353 570.191 666.341 567.718 564.96 577.193C520.018 581.393 474.902 586.683 431.273 591.796C370.997 598.863 308.671 606.168 245.484 610.773C161.861 616.866 109.769 612.318 39.0408 592.746C27.4512 589.539 16.3199 586.141 5.55831 582.853C-34.4929 570.62 -72.3217 559.069 -128.705 558.551Z" fill="black" fill-opacity="0.2"/>
<path d="M-119.299 575.419L-118.829 571.237C-59.9282 572.178 -18.6169 583.152 25.1207 594.771C36.1151 597.692 47.4838 600.712 59.1214 603.552C129.453 620.709 179.993 624.751 259.421 619.571C319.337 615.662 379.274 609.818 437.239 604.167C479.645 600.033 523.49 595.758 567.084 592.262C680.894 583.135 764.117 588.299 861.502 599.59C875.352 601.196 889.123 602.91 903.696 604.723C963.835 612.209 1026.02 619.948 1087.1 618.926C1175.37 617.451 1265.55 603.939 1352.76 590.87C1396.21 584.359 1437.25 578.209 1478.12 573.443C1625.12 556.296 1781.26 564.231 1932.25 571.907C1992.54 574.971 2054.87 578.139 2115.05 579.587L2114.34 583.764C2053.78 582.306 1991.24 579.127 1930.77 576.053C1780.97 568.44 1626.06 560.567 1481.41 577.441C1440.96 582.16 1400.11 588.279 1356.87 594.759C1268.8 607.956 1177.73 621.601 1087.59 623.107C1024.47 624.163 961.303 616.301 900.214 608.697C885.691 606.89 871.973 605.184 858.233 603.59C762.552 592.496 680.856 587.418 569.398 596.354C526.042 599.832 482.314 604.095 440.023 608.219C381.842 613.892 321.679 619.756 261.317 623.693C178.687 629.083 126.142 624.887 53.0807 607.063C41.2583 604.181 29.8007 601.136 18.7175 598.192C-23.6473 586.937 -63.6601 576.307 -119.299 575.419Z" fill="black" fill-opacity="0.2"/>
<path d="M-103.416 592.338L-101.964 588.188C-39.8543 591.277 3.56644 600.154 53.8392 610.432C64.2168 612.553 74.9473 614.747 86.1049 616.94C156.566 630.786 212.208 634.151 298.728 629.798C350.503 627.191 402.821 623.644 453.415 620.215C500.328 617.034 548.837 613.745 596.911 611.207C700.694 605.725 792.478 611.291 893.162 618.553C904.145 619.346 915.18 620.18 926.251 621.015C993.689 626.107 1063.42 631.375 1131.79 627.937C1205.39 624.239 1278.7 616.047 1349.6 608.125C1385.32 604.134 1422.25 600.007 1458.65 596.523C1618.17 581.251 1787.58 586.695 1951.4 591.959C2004.11 593.652 2058.61 595.403 2111.34 596.393L2110.78 600.573C2057.86 599.58 2003.26 597.825 1950.46 596.13C1787.55 590.894 1619.1 585.481 1461.39 600.58C1425.21 604.043 1388.38 608.158 1352.76 612.138C1281.45 620.104 1207.72 628.344 1133.26 632.088C1063.05 635.615 992.4 630.281 924.072 625.12C913.027 624.286 902.026 623.457 891.072 622.666C791.381 615.473 700.55 609.96 598.452 615.353C550.596 617.881 502.193 621.163 455.383 624.336C404.669 627.774 352.229 631.33 300.197 633.947C211.104 638.431 153.737 634.952 80.9712 620.654C69.7272 618.444 58.956 616.243 48.54 614.113C-0.76318 604.03 -43.3488 595.327 -103.416 592.338Z" fill="black" fill-opacity="0.2"/>
<path d="M-82.4328 609.329L-81.3553 605.163C-19.1329 607.444 30.9503 615.203 83.9759 623.418C94.2719 625.014 104.748 626.637 115.536 628.255C193.747 639.998 255.991 641.36 331.073 639.751C351.576 639.312 372.01 638.862 392.381 638.412C566.714 634.568 731.381 630.938 904.445 634.713C922.315 635.103 940.586 635.586 958.255 636.053C1020.7 637.705 1085.27 639.413 1147.82 637.455C1216.7 635.3 1286.1 630.287 1353.22 625.439C1387.11 622.993 1422.15 620.462 1456.67 618.331C1631.77 607.526 1817.31 609.74 1996.74 611.879C2031.99 612.301 2068.44 612.735 2103.82 613.052L2103.56 617.237C2068.14 616.918 2031.66 616.482 1996.38 616.062C1817.48 613.929 1632.49 611.722 1458.47 622.461C1424.09 624.583 1389.13 627.108 1355.31 629.55C1287.91 634.419 1218.21 639.453 1148.75 641.627C1085.34 643.611 1020.34 641.891 957.48 640.228C939.842 639.761 921.612 639.278 903.804 638.889C731.385 635.129 567.036 638.753 393.034 642.589C372.655 643.039 352.217 643.489 331.704 643.929C257.234 645.526 191.273 644.132 111.425 632.143C100.601 630.518 90.0864 628.889 79.7568 627.288C25.2384 618.844 -21.8424 611.549 -82.4328 609.329Z" fill="black" fill-opacity="0.2"/>
<path d="M-59.4505 626.338L-58.8001 622.162C9.09592 623.671 68.5295 630.302 131.445 637.325C138.415 638.102 145.435 638.886 152.518 639.668C219.302 647.045 283.798 647.985 352.08 648.98C360.828 649.109 369.638 649.237 378.523 649.379C404.395 649.796 430.169 650.247 455.873 650.698C604.236 653.296 744.37 655.749 890.549 651.62C1003.26 648.437 1118 646.527 1228.96 644.68C1297.81 643.534 1369.02 642.349 1439.01 640.871C1486.67 639.866 1535.34 638.76 1582.41 637.694C1749.57 633.902 1922.42 629.982 2091.23 629.451L2091.33 633.637C1922.81 634.167 1750.1 638.083 1583.08 641.871C1536 642.938 1487.32 644.043 1439.64 645.05C1369.58 646.528 1298.34 647.714 1229.45 648.862C1118.58 650.707 1003.93 652.615 891.384 655.794C744.53 659.94 604.07 657.482 455.362 654.877C429.67 654.428 403.91 653.976 378.05 653.561C369.182 653.418 360.384 653.29 351.65 653.163C282.66 652.158 217.5 651.206 149.395 643.683C142.301 642.9 135.269 642.116 128.292 641.336C66 634.385 7.16393 627.819 -59.4505 626.338Z" fill="black" fill-opacity="0.2"/>
<path d="M-37.0487 643.29L-36.7895 639.105C32.3137 639.717 96.1033 644.231 163.642 649.012C172.224 649.619 180.84 650.23 189.509 650.834C229.567 653.628 270.677 654.709 310.433 655.757C347.717 656.738 386.271 657.753 424.179 660.173C457.623 662.308 491.275 665.068 523.822 667.737C571.01 671.608 619.807 675.61 668.53 677.742C745.603 681.117 823.368 675.121 898.572 669.323C908.729 668.54 918.867 667.759 928.98 667L936.137 666.465C1023.6 659.905 1106.22 653.709 1194.83 655.724C1251.57 657.013 1309.19 658.628 1364.91 660.188C1402.55 661.243 1441.48 662.332 1479.78 663.313C1599.76 666.384 1718.42 660.423 1833.18 654.657C1911.01 650.747 1991.48 646.704 2072.38 645.438L2072.84 649.62C1992.45 650.878 1912.23 654.907 1834.65 658.805C1719.34 664.598 1600.12 670.587 1479.02 667.487C1440.69 666.505 1401.75 665.416 1364.09 664.362C1308.4 662.801 1250.82 661.188 1194.16 659.9C1106.98 657.919 1025.05 664.062 938.307 670.569L931.15 671.105C921.053 671.862 910.935 672.641 900.799 673.424C824.741 679.287 746.09 685.35 667.253 681.899C617.986 679.742 568.915 675.717 521.46 671.827C489.041 669.167 455.515 666.416 422.323 664.298C384.958 661.912 346.678 660.906 309.665 659.93C269.602 658.876 228.173 657.785 187.49 654.949C178.814 654.344 170.189 653.733 161.597 653.125C94.5096 648.376 31.1497 643.892 -37.0487 643.29Z" fill="black" fill-opacity="0.2"/>
<path d="M-17.6207 656.072C52.5337 655.969 122.467 658.633 190.104 661.209C199.195 661.555 208.303 661.902 217.435 662.243C243.132 663.206 269.213 663.605 294.437 663.994C346.608 664.795 400.555 665.623 453.05 671.483C484.138 674.952 514.771 679.469 544.394 683.836C587.138 690.138 631.339 696.655 677.146 700.032C752.616 705.595 829.599 696.385 904.047 687.479C916.023 686.045 927.886 684.627 939.605 683.286C948.413 682.28 957.223 681.253 966.036 680.226C1044.23 671.113 1125.09 661.689 1209.5 666.043C1263.21 668.814 1316.89 673.283 1368.81 677.608C1403.99 680.537 1440.36 683.566 1476.34 686.03C1597.15 694.305 1709.75 684.893 1828.97 674.928C1899.3 669.048 1972.03 662.968 2045.88 660.994L2046.66 665.168C1973.64 667.12 1901.31 673.166 1831.38 679.013C1716.33 688.63 1597.37 698.573 1474.36 690.147C1438.18 687.669 1401.69 684.631 1366.41 681.692C1314.72 677.387 1261.26 672.937 1208 670.189C1126.02 665.961 1046.36 675.245 969.322 684.223C960.487 685.254 951.658 686.281 942.831 687.292C931.157 688.626 919.339 690.04 907.409 691.467C831.627 700.531 753.269 709.907 675.01 704.137C628.219 700.689 583.548 694.102 540.346 687.733C510.938 683.397 480.528 678.915 449.894 675.495C398.726 669.783 347.846 669.001 293.983 668.175C268.601 667.785 242.354 667.382 216.334 666.408C207.199 666.068 198.084 665.72 188.983 665.373C118.534 662.69 51.9937 660.156 -17.5799 660.257L-17.6207 656.072Z" fill="black" fill-opacity="0.2"/>
</g>
</svg>
